<?xml version="1.0" encoding="UTF-8" standalone="no"?>
<!-- Created with Inkscape (http://www.inkscape.org/) -->

<svg
   width="660"
   height="160"
   viewBox="0 0 174.62499 42.333336"
   version="1.1"
   id="svg5"
   inkscape:version="1.1.1 (1:1.1+202109281949+c3084ef5ed)"
   sodipodi:docname="composteladgc_logo_black_horizontal.svg"
   inkscape:export-filename="/home/jorge/Desktop/logos3.png"
   inkscape:export-xdpi="96"
   inkscape:export-ydpi="96"
   xmlns:inkscape="http://www.inkscape.org/namespaces/inkscape"
   xmlns:sodipodi="http://sodipodi.sourceforge.net/DTD/sodipodi-0.dtd"
   xmlns="http://www.w3.org/2000/svg"
   xmlns:svg="http://www.w3.org/2000/svg">
  <sodipodi:namedview
     id="namedview7"
     pagecolor="#000000"
     bordercolor="#999999"
     borderopacity="1"
     inkscape:pageshadow="0"
     inkscape:pageopacity="1"
     inkscape:pagecheckerboard="0"
     inkscape:document-units="px"
     showgrid="false"
     inkscape:zoom="0.5499273"
     inkscape:cx="107.28691"
     inkscape:cy="468.24371"
     inkscape:window-width="2504"
     inkscape:window-height="1376"
     inkscape:window-x="56"
     inkscape:window-y="27"
     inkscape:window-maximized="1"
     inkscape:current-layer="g1227"
     units="px"
     width="1920px"
     fit-margin-top="20"
     fit-margin-right="20"
     fit-margin-bottom="20"
     fit-margin-left="20" />
  <defs
     id="defs2" />
  <g
     inkscape:label="Layer 1"
     inkscape:groupmode="layer"
     id="layer1"
     transform="translate(-40.906102,-49.034977)">
    <path
       id="path8136"
       style="opacity:1;fill:#f9f9f9;fill-opacity:1;stroke-width:2.1166;stroke-linecap:round;stroke-linejoin:round;stroke-miterlimit:22.926;paint-order:stroke markers fill"
       d="M 64.915645,51.610648 A 28.349815,18.141967 0 0 0 45.288614,56.670969 17.118332,28.359643 86.117883 0 1 54.679241,55.105944 17.118332,28.359643 86.117883 0 1 83.86805,70.448539 17.118332,28.359643 86.117883 0 1 65.278388,87.886619 28.349815,18.141967 0 0 0 93.265539,69.752686 28.349815,18.141967 0 0 0 64.915645,51.610648 Z" />
    <path
       id="path8527"
       style="fill:#b3b3b3;fill-opacity:1;stroke:none;stroke-width:2.1166;stroke-linecap:round;stroke-linejoin:round;stroke-miterlimit:22.926;paint-order:stroke markers fill"
       d="m 65.582027,75.44981 c -4.186686,0.01568 -7.331655,2.23375 -7.381256,5.205883 -0.04587,2.835714 2.745457,5.556254 6.681826,6.512388 4.631637,-1.653919 7.187085,-2.593596 10.24429,-4.768839 -0.646144,-2.938976 -4.197406,-6.487485 -8.335401,-6.892483 -0.404355,-0.03942 -0.80854,-0.05844 -1.209459,-0.05695 z"
       sodipodi:nodetypes="cccccc" />
    <path
       id="path8529"
       style="fill:#b3b3b3;fill-opacity:1;stroke:none;stroke-width:2.1166;stroke-linecap:round;stroke-linejoin:round;stroke-miterlimit:22.926;paint-order:stroke markers fill"
       d="m 63.954,73.666942 c -4.576699,0.01711 -8.014644,2.44183 -8.068865,5.690838 -0.033,2.039554 1.276806,4.024435 3.402194,5.441489 -1.49268,-1.317173 -2.372711,-2.955035 -2.345614,-4.630344 0.05422,-3.249005 3.492161,-5.673723 8.068859,-5.690838 0.438266,-0.0016 0.8801,0.01919 1.322125,0.06225 2.180859,0.213453 4.19795,0.946371 5.782768,2.007236 -1.687534,-1.494561 -4.138699,-2.554064 -6.839343,-2.818387 -0.442028,-0.04309 -0.883858,-0.06388 -1.322124,-0.06225 z" />
    <g
       id="g1227"
       transform="translate(-6.8791671,-6.5095068)">
      <path
         d="m 118.59782,75.47258 q -2.05186,0 -2.84104,-0.88962 -0.54525,-0.631342 -0.54525,-1.76489 0,-0.487855 0.10044,-1.047455 l 0.5883,-3.300201 q 0.64569,-3.630221 4.66332,-3.630221 1.66445,0 2.52538,0.717435 0.86092,0.703087 0.86092,1.937075 0,0.573948 -0.17219,1.147896 -0.15783,0.559599 -0.31567,0.832224 l -0.15783,0.286974 h -2.53972 q 0.4735,-0.54525 0.4735,-1.549659 0,-0.530902 -0.27262,-0.832225 -0.27263,-0.315671 -0.80353,-0.315671 -1.44922,0 -1.72184,1.607054 l -0.50221,2.898438 q -0.0717,0.373066 -0.0717,0.731783 0,0.947014 1.13355,0.947014 1.36312,0 1.63575,-1.53531 h 2.58276 l -0.0717,0.416112 q -0.57395,3.343247 -4.54854,3.343247 z"
         style="font-size:14.3487px;line-height:1.25;font-family:'Fugaz One';-inkscape-font-specification:'Fugaz One';letter-spacing:0.868488px;word-spacing:0px;fill:#ececec;stroke-width:0.264583"
         id="path1996" />
      <path
         d="m 130.70133,64.840193 q 3.45804,0 3.45804,2.826694 0,0.473507 -0.10044,1.018758 l -0.5022,2.86974 q -0.34437,1.994469 -1.49227,2.955832 -1.1479,0.961363 -3.22846,0.961363 -2.08056,0 -2.89843,-0.961363 -0.5596,-0.66004 -0.5596,-1.822285 0,-0.516553 0.11479,-1.133547 l 0.5022,-2.86974 q 0.67439,-3.845452 4.70637,-3.845452 z m -1.47791,8.408338 q 0.71743,0 1.14789,-0.373066 0.43047,-0.373066 0.60265,-1.377475 l 0.48786,-2.75495 q 0.043,-0.286974 0.043,-0.516553 0,-1.162245 -1.17659,-1.162245 -1.47792,0.0287 -1.76489,1.678798 l -0.48786,2.75495 q -0.0574,0.358718 -0.0574,0.746132 0,1.004409 1.20529,1.004409 z"
         style="font-size:14.3487px;line-height:1.25;font-family:'Fugaz One';-inkscape-font-specification:'Fugaz One';letter-spacing:0.868488px;word-spacing:0px;fill:#ececec;stroke-width:0.264583"
         id="path1998" />
      <path
         d="m 140.03555,64.940634 1.53531,4.950302 3.3002,-4.950302 h 2.7119 l -1.82228,10.331064 h -2.59712 l 1.03311,-5.825572 -2.2097,3.472385 h -1.87968 l -0.97571,-3.472385 -1.03311,5.825572 h -2.58276 l 1.82228,-10.331064 z"
         style="font-size:14.3487px;line-height:1.25;font-family:'Fugaz One';-inkscape-font-specification:'Fugaz One';letter-spacing:0.868488px;word-spacing:0px;fill:#ececec;stroke-width:0.264583"
         id="path2000" />
      <path
         d="m 153.51653,72.129333 h -1.7075 l -0.5596,3.142365 h -2.58276 l 1.82228,-10.331064 h 4.37636 q 1.6214,0 2.31014,0.746133 0.5022,0.573948 0.5022,1.463567 0,0.301323 -0.0574,0.631343 l -0.28698,1.621403 q -0.21523,1.190942 -1.26268,1.965772 -1.04746,0.760481 -2.55407,0.760481 z m 0.44481,-4.950302 h -1.29138 l -0.47351,2.711905 h 1.27703 q 1.1766,0 1.36313,-1.047455 l 0.10044,-0.588297 q 0.0287,-0.129138 0.0287,-0.344369 0,-0.21523 -0.21523,-0.473507 -0.21523,-0.258277 -0.78918,-0.258277 z"
         style="font-size:14.3487px;line-height:1.25;font-family:'Fugaz One';-inkscape-font-specification:'Fugaz One';letter-spacing:0.868488px;word-spacing:0px;fill:#ececec;stroke-width:0.264583"
         id="path2002" />
      <path
         d="m 164.27125,64.840193 q 3.45804,0 3.45804,2.826694 0,0.473507 -0.10044,1.018758 l -0.50221,2.86974 q -0.34437,1.994469 -1.49226,2.955832 -1.1479,0.961363 -3.22846,0.961363 -2.08056,0 -2.89844,-0.961363 -0.5596,-0.66004 -0.5596,-1.822285 0,-0.516553 0.11479,-1.133547 l 0.50221,-2.86974 q 0.67439,-3.845452 4.70637,-3.845452 z m -1.47792,8.408338 q 0.71744,0 1.1479,-0.373066 0.43046,-0.373066 0.60265,-1.377475 l 0.48785,-2.75495 q 0.043,-0.286974 0.043,-0.516553 0,-1.162245 -1.1766,-1.162245 -1.47791,0.0287 -1.76489,1.678798 l -0.48785,2.75495 q -0.0574,0.358718 -0.0574,0.746132 0,1.004409 1.20529,1.004409 z"
         style="font-size:14.3487px;line-height:1.25;font-family:'Fugaz One';-inkscape-font-specification:'Fugaz One';letter-spacing:0.868488px;word-spacing:0px;fill:#ececec;stroke-width:0.264583"
         id="path2004" />
      <path
         d="m 171.82623,72.330215 q 0,0.99006 1.42052,0.99006 1.43487,0 1.43487,-0.88962 0,-0.473507 -0.48786,-0.774829 -0.48785,-0.301323 -1.19094,-0.502205 -0.68874,-0.200882 -1.39182,-0.459158 -0.68874,-0.272625 -1.1766,-0.832225 -0.48785,-0.573948 -0.48785,-1.420521 0,-3.601524 4.63463,-3.601524 1.69314,0 2.55407,0.645692 0.87527,0.631343 0.87527,1.76489 0,0.416112 -0.11479,0.803527 -0.10044,0.373066 -0.21523,0.530902 l -0.11479,0.172184 h -2.53972 q 0.31567,-0.33002 0.31567,-0.832224 0,-0.932666 -1.21964,-0.932666 -1.53531,0 -1.53531,0.975712 0,0.487856 0.48785,0.77483 0.48786,0.286974 1.1766,0.459158 0.70308,0.157836 1.40617,0.401764 0.70309,0.243928 1.19094,0.817876 0.48786,0.559599 0.48786,1.463567 0,1.822285 -1.0905,2.711904 -1.09051,0.875271 -3.3576,0.875271 -2.26709,0 -3.09932,-0.803527 -0.61699,-0.602646 -0.61699,-1.66445 0,-0.401763 0.0861,-0.87527 l 0.043,-0.229579 h 2.58276 l -0.0287,0.172184 q -0.0287,0.143487 -0.0287,0.258277 z"
         style="font-size:14.3487px;line-height:1.25;font-family:'Fugaz One';-inkscape-font-specification:'Fugaz One';letter-spacing:0.868488px;word-spacing:0px;fill:#ececec;stroke-width:0.264583"
         id="path2006" />
      <path
         d="m 189.48268,67.179031 h -3.52978 l -1.42052,8.092667 h -2.59712 l 1.42052,-8.092667 h -3.54412 l 0.40176,-2.238397 h 9.67102 z"
         style="font-size:14.3487px;line-height:1.25;font-family:'Fugaz One';-inkscape-font-specification:'Fugaz One';letter-spacing:0.868488px;word-spacing:0px;fill:#ececec;stroke-width:0.264583"
         id="path2008" />
      <path
         d="m 197.31027,75.271698 h -7.20305 l 1.82228,-10.331064 h 7.20305 l -0.40176,2.238397 h -4.62028 l -0.33002,1.937075 h 3.81675 l -0.40176,2.238397 h -3.81676 l -0.28697,1.678798 h 4.62028 z"
         style="font-size:14.3487px;line-height:1.25;font-family:'Fugaz One';-inkscape-font-specification:'Fugaz One';letter-spacing:0.868488px;word-spacing:0px;fill:#ececec;stroke-width:0.264583"
         id="path2010" />
      <path
         d="m 206.37185,75.271698 h -6.54301 l 1.82228,-10.331064 h 2.58277 l -1.42052,8.092667 h 3.96024 z"
         style="font-size:14.3487px;line-height:1.25;font-family:'Fugaz One';-inkscape-font-specification:'Fugaz One';letter-spacing:0.868488px;word-spacing:0px;fill:#ececec;stroke-width:0.264583"
         id="path2012" />
      <path
         d="m 213.49636,75.271698 0.0861,-2.252746 h -2.39624 l -0.70308,2.252746 h -2.7406 l 3.68761,-10.331064 h 4.73507 l 0.0574,10.331064 z m -0.5883,-7.820041 -1.13355,3.644569 h 1.87968 l 0.15784,-3.644569 z"
         style="font-size:14.3487px;line-height:1.25;font-family:'Fugaz One';-inkscape-font-specification:'Fugaz One';letter-spacing:0.868488px;word-spacing:0px;fill:#ececec;stroke-width:0.264583"
         id="path2014" />
      <path
         d="m 122.00437,83.747933 q 0,3.853065 -3.88773,3.853065 h -2.42044 v -7.625256 h 2.42044 q 3.88773,0 3.88773,3.772191 z m -1.03981,0 q 0,-0.670098 -0.13287,-1.201555 -0.13286,-0.531458 -0.46213,-0.901167 -0.3235,-0.369709 -0.87806,-0.566117 -0.54879,-0.196409 -1.38641,-0.196409 h -1.39797 v 5.81137 h 1.39797 q 0.83184,0 1.38063,-0.196408 0.55456,-0.202185 0.88384,-0.583448 0.32927,-0.381263 0.46213,-0.924274 0.13287,-0.548787 0.13287,-1.241992 z"
         id="path2017"
         style="font-size:11.8307px;line-height:1.25;font-family:Pagul;-inkscape-font-specification:Pagul;letter-spacing:1.52614px;word-spacing:0px;fill:#ffffff;stroke-width:0.264583" />
      <path
         d="m 126.0607,87.600998 h -1.00514 v -7.625256 h 1.00514 z"
         id="path2019"
         style="font-size:11.8307px;line-height:1.25;font-family:Pagul;-inkscape-font-specification:Pagul;letter-spacing:1.52614px;word-spacing:0px;fill:#ffffff;stroke-width:0.264583" />
      <path
         d="m 132.28909,87.618328 q -0.80874,0 -1.4153,-0.190631 -0.60078,-0.190632 -1.00515,-0.531458 -0.39859,-0.346602 -0.60655,-0.820292 -0.20796,-0.47369 -0.22529,-1.045585 h 0.97049 q 0.0404,0.433254 0.23106,0.750973 0.19063,0.317719 0.48525,0.52568 0.30039,0.207962 0.68743,0.306166 0.38703,0.0982 0.82606,0.0982 0.42748,0 0.77408,-0.08665 0.35238,-0.09243 0.60078,-0.259952 0.2484,-0.173301 0.38126,-0.410146 0.13865,-0.242622 0.13865,-0.543011 0,-0.311942 -0.12709,-0.531457 -0.12131,-0.219515 -0.40437,-0.381263 -0.27728,-0.161748 -0.73364,-0.288835 -0.45059,-0.132865 -1.11491,-0.271506 -0.64121,-0.144417 -1.10913,-0.329272 -0.46213,-0.190631 -0.76252,-0.43903 -0.29461,-0.254175 -0.43903,-0.577671 -0.14442,-0.323495 -0.14442,-0.750972 0,-0.45636 0.19641,-0.843399 0.19641,-0.392817 0.55456,-0.670099 0.35816,-0.283058 0.85495,-0.43903 0.50258,-0.161747 1.10913,-0.161747 0.64122,0 1.1669,0.155971 0.53146,0.155971 0.91272,0.45636 0.38704,0.294612 0.60078,0.722088 0.21951,0.4217 0.23684,0.958934 h -0.97626 q -0.15597,-1.380633 -1.89476,-1.380633 -0.84918,0 -1.31132,0.317719 -0.45636,0.311942 -0.45636,0.849176 0,0.242622 0.0809,0.415923 0.0867,0.167524 0.28883,0.300389 0.20796,0.127087 0.54301,0.236845 0.33505,0.103981 0.83763,0.207961 0.34082,0.06932 0.69898,0.150195 0.36393,0.08087 0.70476,0.202185 0.3466,0.115534 0.64699,0.283058 0.30616,0.167525 0.53146,0.40437 0.23106,0.236845 0.36393,0.560341 0.13286,0.323495 0.13286,0.756749 0,0.502573 -0.21374,0.924273 -0.20796,0.4217 -0.58922,0.727865 -0.37549,0.300389 -0.89539,0.47369 -0.5199,0.167525 -1.13223,0.167525 z"
         id="path2021"
         style="font-size:11.8307px;line-height:1.25;font-family:Pagul;-inkscape-font-specification:Pagul;letter-spacing:1.52614px;word-spacing:0px;fill:#ffffff;stroke-width:0.264583" />
      <path
         d="m 144.34039,82.170892 h -1.03403 q -0.0231,-0.363933 -0.19063,-0.652769 -0.16753,-0.294612 -0.43903,-0.496797 -0.27151,-0.207961 -0.63544,-0.317719 -0.36393,-0.109757 -0.78563,-0.109757 -0.57768,0 -1.04559,0.202185 -0.46214,0.202185 -0.79141,0.595001 -0.32349,0.387039 -0.50257,0.958933 -0.1733,0.571895 -0.1733,1.31709 0,0.739419 0.1733,1.31709 0.17908,0.571894 0.50257,0.96471 0.3235,0.392816 0.78563,0.600778 0.46214,0.202185 1.02826,0.202185 0.44481,0 0.80874,-0.109758 0.36971,-0.109757 0.63544,-0.323495 0.2715,-0.219515 0.43325,-0.531458 0.16175,-0.311942 0.19641,-0.722088 h 1.03403 q -0.052,0.606554 -0.30617,1.080244 -0.2484,0.47369 -0.65854,0.802963 -0.40437,0.329272 -0.94738,0.502573 -0.54301,0.167525 -1.17845,0.167525 -0.81452,0 -1.47306,-0.277282 -0.65855,-0.277282 -1.12068,-0.791409 -0.46214,-0.519904 -0.71054,-1.247769 -0.2484,-0.733642 -0.2484,-1.634809 0,-0.901166 0.2484,-1.629032 0.25418,-0.733642 0.71631,-1.247769 0.46214,-0.514127 1.12068,-0.791409 0.65855,-0.283059 1.46729,-0.283059 0.60655,0 1.14379,0.179078 0.53723,0.173301 0.95315,0.496797 0.41593,0.317719 0.67588,0.774079 0.26573,0.450583 0.31772,1.005148 z"
         id="path2023"
         style="font-size:11.8307px;line-height:1.25;font-family:Pagul;-inkscape-font-specification:Pagul;letter-spacing:1.52614px;word-spacing:0px;fill:#ffffff;stroke-width:0.264583" />
      <path
         d="m 150.60343,87.618328 q -0.82607,0 -1.50772,-0.283059 -0.67588,-0.283058 -1.16112,-0.802962 -0.48524,-0.519904 -0.75097,-1.247769 -0.26573,-0.727866 -0.26573,-1.617479 0,-0.901166 0.26573,-1.629032 0.26573,-0.727865 0.74519,-1.241992 0.48525,-0.514127 1.15535,-0.791409 0.67587,-0.277282 1.48461,-0.277282 0.68165,0 1.2651,0.173301 0.58345,0.173301 1.02248,0.496797 0.43903,0.317719 0.71053,0.768302 0.27151,0.450583 0.3235,1.010924 h -1.05136 q -0.0289,-0.369709 -0.20219,-0.664321 -0.16752,-0.294612 -0.46214,-0.496797 -0.28883,-0.202185 -0.6932,-0.306166 -0.40437,-0.109757 -0.89539,-0.109757 -0.58345,0 -1.06869,0.202184 -0.47947,0.202185 -0.82607,0.595002 -0.3466,0.392816 -0.53723,0.96471 -0.19064,0.571894 -0.19064,1.305536 0,0.727865 0.19064,1.29976 0.19063,0.571894 0.53723,0.970487 0.3466,0.392816 0.83185,0.606554 0.48524,0.207962 1.06869,0.207962 0.83762,0 1.44417,-0.265729 0.60656,-0.271505 1.01093,-0.814516 v -1.166895 h -2.0103 v -0.91272 h 2.99811 v 3.893502 h -0.72786 l -0.25995,-0.802963 q -0.77986,0.935827 -2.44355,0.935827 z"
         id="path2025"
         style="font-size:11.8307px;line-height:1.25;font-family:Pagul;-inkscape-font-specification:Pagul;letter-spacing:1.52614px;word-spacing:0px;fill:#ffffff;stroke-width:0.264583" />
      <path
         d="m 160.39026,79.727344 q 0.79141,0 1.46151,0.283058 0.6701,0.283059 1.15534,0.802963 0.48525,0.514127 0.75675,1.241992 0.27151,0.727866 0.27151,1.611702 0,0.87806 -0.27151,1.605925 -0.26573,0.722089 -0.75097,1.247769 -0.47947,0.519904 -1.14957,0.80874 -0.67009,0.288835 -1.47306,0.288835 -0.80296,0 -1.47306,-0.283059 -0.6701,-0.288835 -1.15534,-0.808739 -0.48524,-0.519904 -0.75675,-1.247769 -0.26573,-0.727865 -0.26573,-1.611702 0,-0.889613 0.27151,-1.617478 0.27728,-0.727866 0.76252,-1.241993 0.48525,-0.519904 1.15535,-0.797186 0.67009,-0.283058 1.4615,-0.283058 z m -0.006,7.140012 q 0.57189,0 1.05136,-0.207962 0.47946,-0.213738 0.82607,-0.606554 0.3466,-0.398593 0.53723,-0.970487 0.19641,-0.571894 0.19641,-1.29976 0,-0.727865 -0.19641,-1.299759 -0.19641,-0.571894 -0.54301,-0.964711 -0.3466,-0.392816 -0.82029,-0.595001 -0.47369,-0.207961 -1.02826,-0.207961 -0.57189,0 -1.05136,0.207961 -0.47947,0.207962 -0.83184,0.606555 -0.34661,0.392816 -0.54302,0.96471 -0.1964,0.566118 -0.1964,1.288206 0,0.727866 0.19063,1.29976 0.19641,0.571894 0.54301,0.970487 0.3466,0.392816 0.82029,0.606554 0.47947,0.207962 1.04559,0.207962 z"
         id="path2027"
         style="font-size:11.8307px;line-height:1.25;font-family:Pagul;-inkscape-font-specification:Pagul;letter-spacing:1.52614px;word-spacing:0px;fill:#ffffff;stroke-width:0.264583" />
      <path
         d="m 171.63283,87.600998 h -4.72535 v -7.625256 h 1.01092 v 6.718313 h 3.71443 z"
         id="path2029"
         style="font-size:11.8307px;line-height:1.25;font-family:Pagul;-inkscape-font-specification:Pagul;letter-spacing:1.52614px;word-spacing:0px;fill:#ffffff;stroke-width:0.264583" />
      <path
         d="m 179.51335,80.882685 h -4.1419 v 2.356898 h 3.59888 v 0.906943 h -3.59888 v 3.454472 h -1.01093 v -7.625256 h 5.15283 z"
         id="path2031"
         style="font-size:11.8307px;line-height:1.25;font-family:Pagul;-inkscape-font-specification:Pagul;letter-spacing:1.52614px;word-spacing:0px;fill:#ffffff;stroke-width:0.264583" />
      <path
         d="m 191.64075,82.170892 h -1.03403 q -0.0231,-0.363933 -0.19064,-0.652769 -0.16752,-0.294612 -0.43903,-0.496797 -0.2715,-0.207961 -0.63543,-0.317719 -0.36394,-0.109757 -0.78564,-0.109757 -0.57767,0 -1.04558,0.202185 -0.46214,0.202185 -0.79141,0.595001 -0.3235,0.387039 -0.50257,0.958933 -0.17331,0.571895 -0.17331,1.31709 0,0.739419 0.17331,1.31709 0.17907,0.571894 0.50257,0.96471 0.3235,0.392816 0.78563,0.600778 0.46214,0.202185 1.02826,0.202185 0.4448,0 0.80874,-0.109758 0.36971,-0.109757 0.63543,-0.323495 0.27151,-0.219515 0.43326,-0.531458 0.16174,-0.311942 0.19641,-0.722088 h 1.03403 q -0.052,0.606554 -0.30617,1.080244 -0.2484,0.47369 -0.65854,0.802963 -0.40437,0.329272 -0.94738,0.502573 -0.54302,0.167525 -1.17845,0.167525 -0.81452,0 -1.47306,-0.277282 -0.65855,-0.277282 -1.12069,-0.791409 -0.46213,-0.519904 -0.71053,-1.247769 -0.2484,-0.733642 -0.2484,-1.634809 0,-0.901166 0.2484,-1.629032 0.25417,-0.733642 0.71631,-1.247769 0.46214,-0.514127 1.12068,-0.791409 0.65855,-0.283059 1.46729,-0.283059 0.60655,0 1.14379,0.179078 0.53723,0.173301 0.95315,0.496797 0.41593,0.317719 0.67588,0.774079 0.26573,0.450583 0.31772,1.005148 z"
         id="path2033"
         style="font-size:11.8307px;line-height:1.25;font-family:Pagul;-inkscape-font-specification:Pagul;letter-spacing:1.52614px;word-spacing:0px;fill:#ffffff;stroke-width:0.264583" />
      <path
         d="m 199.29019,87.600998 h -4.72535 v -7.625256 h 1.01093 v 6.718313 h 3.71442 z"
         id="path2035"
         style="font-size:11.8307px;line-height:1.25;font-family:Pagul;-inkscape-font-specification:Pagul;letter-spacing:1.52614px;word-spacing:0px;fill:#ffffff;stroke-width:0.264583" />
      <path
         d="m 205.016,87.676095 q -0.70475,0 -1.20155,-0.138641 -0.4968,-0.144418 -0.83185,-0.387039 -0.33505,-0.248399 -0.52568,-0.577671 -0.19063,-0.329273 -0.28883,-0.698982 -0.0982,-0.375486 -0.12709,-0.768302 -0.0231,-0.398593 -0.0231,-0.779856 v -4.407629 h 1.01093 v 4.390299 q 0,0.768302 0.13286,1.247769 0.13287,0.479467 0.38126,0.750972 0.25418,0.265729 0.62389,0.363933 0.36971,0.0982 0.84917,0.0982 0.48525,0 0.85496,-0.0982 0.36971,-0.0982 0.61811,-0.36971 0.25417,-0.271505 0.38126,-0.750972 0.12709,-0.479467 0.12709,-1.241992 v -4.390299 h 1.0167 v 4.407629 q 0,0.791409 -0.13864,1.415294 -0.13287,0.618108 -0.47369,1.051361 -0.33505,0.427476 -0.9185,0.658544 -0.57767,0.225292 -1.46729,0.225292 z"
         id="path2037"
         style="font-size:11.8307px;line-height:1.25;font-family:Pagul;-inkscape-font-specification:Pagul;letter-spacing:1.52614px;word-spacing:0px;fill:#ffffff;stroke-width:0.264583" />
      <path
         d="m 216.95177,85.382742 q 0,1.080244 -0.72209,1.652138 -0.72209,0.566118 -2.12583,0.566118 h -2.86525 v -7.625256 h 2.71506 q 0.595,0 1.08024,0.138641 0.48524,0.132864 0.82607,0.38704 0.34083,0.248398 0.52568,0.612331 0.18486,0.358156 0.18486,0.808739 0,0.560341 -0.27151,0.958934 -0.2715,0.398593 -0.82607,0.664321 0.36971,0.08665 0.64699,0.271506 0.27728,0.179078 0.46214,0.421699 0.18485,0.242622 0.27728,0.537234 0.0924,0.288836 0.0924,0.606555 z m -4.70224,-2.21248 h 1.69835 q 0.83762,0 1.23044,-0.265728 0.39859,-0.265729 0.39859,-0.89539 0,-0.283059 -0.0924,-0.491021 -0.0866,-0.213738 -0.29461,-0.352379 -0.20218,-0.144418 -0.53145,-0.213738 -0.32928,-0.06932 -0.80874,-0.06932 h -1.60015 z m 0,3.523793 h 1.84854 q 1.80234,0 1.80234,-1.311313 0,-0.340826 -0.0924,-0.589225 -0.0924,-0.248398 -0.31772,-0.410146 -0.22529,-0.161748 -0.60078,-0.236845 -0.37548,-0.08087 -0.93582,-0.08087 h -1.70413 z"
         id="path2039"
         style="font-size:11.8307px;line-height:1.25;font-family:Pagul;-inkscape-font-specification:Pagul;letter-spacing:1.52614px;word-spacing:0px;fill:#ffffff;stroke-width:0.264583" />
    </g>
  </g>
</svg>
