<?xml version="1.0" encoding="UTF-8" standalone="no"?>
<!-- Created with Inkscape (http://www.inkscape.org/) -->

<svg
   width="391.47229"
   height="95.263161"
   viewBox="0 0 103.57704 25.205045"
   version="1.1"
   id="svg16957"
   inkscape:version="1.1.1 (1:1.1+202109281949+c3084ef5ed)"
   sodipodi:docname="logo_dark.svg"
   xmlns:inkscape="http://www.inkscape.org/namespaces/inkscape"
   xmlns:sodipodi="http://sodipodi.sourceforge.net/DTD/sodipodi-0.dtd"
   xmlns="http://www.w3.org/2000/svg"
   xmlns:svg="http://www.w3.org/2000/svg">
  <sodipodi:namedview
     id="namedview16959"
     pagecolor="#000000"
     bordercolor="#999999"
     borderopacity="1"
     inkscape:pageshadow="0"
     inkscape:pageopacity="0"
     inkscape:pagecheckerboard="0"
     inkscape:document-units="mm"
     showgrid="false"
     units="px"
     fit-margin-top="1"
     fit-margin-bottom="1"
     fit-margin-right="1"
     fit-margin-left="1"
     inkscape:zoom="1.2810466"
     inkscape:cx="228.71924"
     inkscape:cy="90.160656"
     inkscape:window-width="2504"
     inkscape:window-height="1376"
     inkscape:window-x="56"
     inkscape:window-y="27"
     inkscape:window-maximized="1"
     inkscape:current-layer="layer1" />
  <defs
     id="defs16954" />
  <g
     inkscape:label="Layer 1"
     inkscape:groupmode="layer"
     id="layer1"
     transform="translate(-113.02788,-61.337673)">
    <path
       id="path17039"
       style="font-weight:300;font-stretch:extra-condensed;font-size:17.2902px;line-height:1.25;font-family:'Saira ExtraCondensed';-inkscape-font-specification:'Saira ExtraCondensed,  weight=250 Extra-Condensed';fill:#ffffff;stroke-width:2.08854"
       d="M 323.16406 17.080078 L 323.16406 65.634766 L 326.10352 65.634766 L 326.36523 60.929688 L 326.69141 60.929688 C 327.17063 62.977284 327.99949 64.372663 329.17578 65.113281 C 330.35205 65.810334 331.83294 66.158203 333.61914 66.158203 C 336.01526 66.158203 337.77938 65.700039 338.91211 64.785156 C 340.08837 63.826708 340.8944 62.170916 341.33008 59.818359 C 341.8093 57.422237 342.04883 53.806513 342.04883 48.970703 C 342.04883 44.178459 341.83214 40.606463 341.39648 38.253906 C 340.96081 35.857784 340.15478 34.181104 338.97852 33.222656 C 337.80223 32.264208 336.01526 31.785156 333.61914 31.785156 C 331.74581 31.785156 330.26492 32.153913 329.17578 32.894531 C 328.13019 33.63515 327.38878 34.834731 326.95312 36.490234 L 326.62695 36.490234 L 326.62695 17.080078 L 323.16406 17.080078 z M 128.68555 20.152344 C 125.2874 20.152344 122.84841 20.718851 121.36719 21.851562 C 119.88594 22.984274 118.905 25.07539 118.42578 28.125 C 117.9901 31.17461 117.77148 36.18376 117.77148 43.154297 C 117.77148 50.124834 117.9901 55.135937 118.42578 58.185547 C 118.905 61.235157 119.88594 63.326273 121.36719 64.458984 C 122.84841 65.591696 125.2874 66.158203 128.68555 66.158203 C 132.08367 66.158203 134.52266 65.591696 136.00391 64.458984 C 137.48515 63.326273 138.44521 61.235157 138.88086 58.185547 C 139.36008 55.135937 139.59961 50.124834 139.59961 43.154297 C 139.59961 36.18376 139.36008 31.17461 138.88086 28.125 C 138.44521 25.07539 137.48515 22.984274 136.00391 21.851562 C 134.52266 20.718851 132.08367 20.152344 128.68555 20.152344 z M 84.378906 20.675781 L 84.378906 65.634766 L 87.974609 65.634766 L 87.974609 20.675781 L 84.378906 20.675781 z M 96.337891 20.675781 L 96.337891 65.634766 L 99.931641 65.634766 L 99.931641 20.675781 L 96.337891 20.675781 z M 228.53906 20.675781 L 237.81836 43.025391 L 228.4082 65.634766 L 232.13281 65.634766 L 240.04102 46.226562 L 240.36719 46.226562 L 248.33984 65.634766 L 252.19531 65.634766 L 242.78516 42.894531 L 252.06445 20.675781 L 248.33984 20.675781 L 240.49805 39.757812 L 240.23633 39.757812 L 232.32812 20.675781 L 228.53906 20.675781 z M 128.68555 23.484375 C 130.99454 23.484375 132.60661 23.834197 133.52148 24.53125 C 134.43638 25.228306 135.06749 26.884095 135.41602 29.498047 C 135.76454 32.111998 135.93945 36.662986 135.93945 43.154297 C 135.93945 49.64561 135.76454 54.198549 135.41602 56.8125 C 135.06749 59.426451 134.43638 61.082244 133.52148 61.779297 C 132.60661 62.47635 130.99454 62.824219 128.68555 62.824219 C 126.37656 62.824219 124.76451 62.47635 123.84961 61.779297 C 122.93474 61.082244 122.3036 59.426451 121.95508 56.8125 C 121.60656 54.154983 121.43164 49.602045 121.43164 43.154297 C 121.43164 36.706551 121.60656 32.176451 121.95508 29.5625 C 122.3036 26.904983 122.93474 25.228306 123.84961 24.53125 C 124.76451 23.834197 126.37656 23.484375 128.68555 23.484375 z M 156.58984 31.785156 C 154.80364 31.785156 153.32275 32.153913 152.14648 32.894531 C 150.97019 33.591584 150.14133 34.964122 149.66211 37.011719 L 149.33594 37.011719 L 149.07422 32.306641 L 146.13477 32.306641 L 146.13281 78.181641 L 149.59766 78.181641 L 149.59766 61.453125 L 149.92383 61.453125 C 150.35948 63.108629 151.10089 64.306256 152.14648 65.046875 C 153.23562 65.787494 154.71651 66.158203 156.58984 66.158203 C 158.98596 66.158203 160.77098 65.679151 161.94727 64.720703 C 163.12353 63.762255 163.92958 62.106463 164.36523 59.753906 C 164.80091 57.357784 165.01953 53.762948 165.01953 48.970703 C 165.01953 44.134893 164.78003 40.54201 164.30078 38.189453 C 163.86513 35.793331 163.05908 34.137539 161.88281 33.222656 C 160.75009 32.264208 158.98596 31.785156 156.58984 31.785156 z M 180.11523 31.785156 C 177.06563 31.785156 174.84334 32.328822 173.44922 33.417969 C 172.09867 34.463547 171.24891 36.119339 170.90039 38.384766 C 170.55187 40.606624 170.37891 44.157734 170.37891 49.037109 C 170.37891 53.829354 170.5956 57.378509 171.03125 59.6875 C 171.51049 61.996489 172.42486 63.652281 173.77539 64.654297 C 175.16951 65.65631 177.34808 66.158203 180.31055 66.158203 C 181.70466 66.158203 183.14378 66.070746 184.625 65.896484 C 186.10625 65.722218 187.28101 65.526421 188.15234 65.308594 L 188.15234 62.302734 C 187.19388 62.520564 185.99628 62.716364 184.55859 62.890625 C 183.1645 63.021321 181.92314 63.085938 180.83398 63.085938 C 178.65569 63.085937 177.08734 62.758957 176.12891 62.105469 C 175.17044 61.408416 174.53933 60.210788 174.23438 58.511719 C 173.97298 56.769084 173.8418 53.959393 173.8418 50.082031 L 188.87109 50.082031 L 188.87109 48.90625 C 188.87109 43.939742 188.69813 40.344905 188.34961 38.123047 C 188.04463 35.901189 187.28233 34.289125 186.0625 33.287109 C 184.88621 32.285096 182.90344 31.785156 180.11523 31.785156 z M 205.86328 31.785156 C 203.68499 31.785156 202.02921 32.264208 200.89648 33.222656 C 199.80735 34.137539 199.06592 35.39978 198.67383 37.011719 L 198.34766 37.011719 L 198.08594 32.306641 L 195.14453 32.306641 L 195.14453 65.634766 L 198.60938 65.634766 L 198.60938 48.513672 C 198.60938 45.071969 198.69673 42.478962 198.87109 40.736328 C 199.08892 38.993694 199.61171 37.600269 200.43945 36.554688 C 201.31079 35.465541 202.68138 34.921875 204.55469 34.921875 C 206.16663 34.921875 207.34337 35.161401 208.08398 35.640625 C 208.82462 36.119851 209.3265 37.098841 209.58789 38.580078 C 209.84928 40.017752 209.97852 42.327506 209.97852 45.507812 L 209.98047 65.634766 L 213.44336 65.634766 L 213.44336 44.396484 C 213.44336 41.08548 213.24756 38.559041 212.85547 36.816406 C 212.50695 35.073772 211.78838 33.809577 210.69922 33.025391 C 209.65365 32.197641 208.04157 31.785156 205.86328 31.785156 z M 262.91211 31.785156 C 260.03677 31.785156 257.42287 32.04557 255.07031 32.568359 L 255.07031 35.574219 C 255.98518 35.399955 257.09536 35.247884 258.40234 35.117188 C 259.75287 34.942926 260.9505 34.855469 261.99609 34.855469 C 264.04369 34.855469 265.50369 35.074107 266.375 35.509766 C 267.24633 35.901859 267.83371 36.751618 268.13867 38.058594 C 268.48719 39.365569 268.66211 41.500414 268.66211 44.462891 L 268.66211 47.207031 C 265.04613 46.989204 262.54058 46.880859 261.14648 46.880859 C 259.18602 46.880859 257.68427 47.185002 256.63867 47.794922 C 255.5931 48.361279 254.83078 49.342222 254.35156 50.736328 C 253.91588 52.086872 253.69727 54.003075 253.69727 56.486328 C 253.69727 59.056714 253.95961 61.039487 254.48242 62.433594 C 255.04877 63.8277 255.87571 64.80669 256.96484 65.373047 C 258.09757 65.895836 259.62216 66.158203 261.53906 66.158203 C 263.2817 66.158203 264.76259 65.810334 265.98242 65.113281 C 267.24584 64.372663 268.0956 62.977284 268.53125 60.929688 L 268.85742 60.929688 L 269.11914 65.634766 L 272.125 65.634766 L 272.125 44.265625 C 272.125 40.867487 271.86458 38.297322 271.3418 36.554688 C 270.81901 34.768488 269.90464 33.527131 268.59766 32.830078 C 267.33424 32.133025 265.43893 31.785156 262.91211 31.785156 z M 287.15625 31.785156 C 284.673 31.785156 282.79855 32.285096 281.53516 33.287109 C 280.27174 34.289125 279.38021 35.988643 278.85742 38.384766 C 278.3782 40.780888 278.13867 44.331998 278.13867 49.037109 C 278.13867 53.611524 278.33447 57.052337 278.72656 59.361328 C 279.11865 61.670317 279.9684 63.390726 281.27539 64.523438 C 282.58235 65.612584 284.60692 66.158203 287.35156 66.158203 C 288.31003 66.158203 289.33469 66.070746 290.42383 65.896484 C 291.51299 65.765783 292.42736 65.590874 293.16797 65.373047 L 293.16797 62.367188 C 292.51449 62.585017 291.70846 62.759929 290.75 62.890625 C 289.79156 63.021321 288.87717 63.085938 288.00586 63.085938 C 286.08896 63.085938 284.69555 62.738069 283.82422 62.041016 C 282.95291 61.343962 282.36355 60.036039 282.05859 58.119141 C 281.75364 56.202242 281.60156 53.132137 281.60156 48.90625 C 281.60156 44.854624 281.75364 41.870023 282.05859 39.953125 C 282.36355 38.036229 282.95291 36.707418 283.82422 35.966797 C 284.69555 35.226178 286.04523 34.855469 287.875 34.855469 C 289.66118 34.855469 291.36071 35.074107 292.97266 35.509766 L 292.97266 32.503906 C 291.23002 32.024682 289.29098 31.785156 287.15625 31.785156 z M 307.2832 31.785156 C 304.32073 31.785156 302.165 32.241367 300.81445 33.15625 C 299.50747 34.071133 298.65771 35.683196 298.26562 37.992188 C 297.87354 40.257611 297.67773 43.939905 297.67773 49.037109 C 297.67773 54.134314 297.87354 57.814652 298.26562 60.080078 C 298.65771 62.345502 299.50747 63.93668 300.81445 64.851562 C 302.165 65.72288 304.32073 66.158203 307.2832 66.158203 C 310.24567 66.158203 312.38051 65.72288 313.6875 64.851562 C 314.99449 63.93668 315.84424 62.345502 316.23633 60.080078 C 316.67198 57.771087 316.89062 54.090748 316.89062 49.037109 C 316.89062 43.939905 316.67198 40.257611 316.23633 37.992188 C 315.84424 35.683196 314.99449 34.071133 313.6875 33.15625 C 312.38051 32.241367 310.24567 31.785156 307.2832 31.785156 z M 357.14453 31.785156 C 354.09493 31.785156 351.87263 32.328822 350.47852 33.417969 C 349.12799 34.463547 348.27821 36.119339 347.92969 38.384766 C 347.58114 40.606624 347.4082 44.157734 347.4082 49.037109 C 347.4082 53.829354 347.62487 57.378509 348.06055 59.6875 C 348.53977 61.996489 349.45416 63.652281 350.80469 64.654297 C 352.1988 65.65631 354.37737 66.158203 357.33984 66.158203 C 358.73396 66.158203 360.17305 66.070746 361.6543 65.896484 C 363.13552 65.722218 364.31031 65.526421 365.18164 65.308594 L 365.18164 62.302734 C 364.22318 62.520564 363.02555 62.716364 361.58789 62.890625 C 360.19377 63.021321 358.95242 63.085938 357.86328 63.085938 C 355.68499 63.085937 354.11667 62.758957 353.1582 62.105469 C 352.19977 61.408416 351.56863 60.210788 351.26367 58.511719 C 351.00225 56.769084 350.87109 53.959393 350.87109 50.082031 L 365.90039 50.082031 L 365.90039 48.90625 C 365.90039 43.939742 365.72743 40.344905 365.37891 38.123047 C 365.07395 35.901189 364.31165 34.289125 363.0918 33.287109 C 361.91553 32.285096 359.93276 31.785156 357.14453 31.785156 z M 380.86523 31.785156 C 377.90277 31.785156 375.74704 32.241367 374.39648 33.15625 C 373.08952 34.071133 372.23974 35.683196 371.84766 37.992188 C 371.45554 40.257611 371.25977 43.939905 371.25977 49.037109 C 371.25977 54.134314 371.45554 57.814652 371.84766 60.080078 C 372.23974 62.345502 373.08952 63.93668 374.39648 64.851562 C 375.74704 65.72288 377.90277 66.158203 380.86523 66.158203 C 383.82773 66.158203 385.96257 65.72288 387.26953 64.851562 C 388.57652 63.93668 389.42627 62.345502 389.81836 60.080078 C 390.25401 57.771087 390.47266 54.090748 390.47266 49.037109 C 390.47266 43.939905 390.25401 40.257611 389.81836 37.992188 C 389.42627 35.683196 388.57652 34.071133 387.26953 33.15625 C 385.96257 32.241367 383.82773 31.785156 380.86523 31.785156 z M 180.04883 34.855469 C 181.61721 34.855469 182.77306 35.094995 183.51367 35.574219 C 184.25428 36.053443 184.77705 37.078114 185.08203 38.646484 C 185.38699 40.214857 185.53906 42.720409 185.53906 46.162109 L 185.53906 47.337891 L 173.8418 47.337891 C 173.8418 43.460529 173.97298 40.694564 174.23438 39.039062 C 174.49577 37.383559 175.03942 36.271433 175.86719 35.705078 C 176.73849 35.138721 178.13193 34.855469 180.04883 34.855469 z M 307.2832 34.855469 C 309.24367 34.855469 310.6371 35.205291 311.46484 35.902344 C 312.29274 36.555832 312.8155 37.797188 313.0332 39.626953 C 313.2946 41.456721 313.42578 44.593393 313.42578 49.037109 C 313.42578 53.437261 313.2946 56.551092 313.0332 58.380859 C 312.81538 60.167059 312.29261 61.408416 311.46484 62.105469 C 310.6371 62.758957 309.24367 63.085938 307.2832 63.085938 C 305.27917 63.085937 303.8629 62.758957 303.03516 62.105469 C 302.20726 61.408416 301.6845 60.167059 301.4668 58.380859 C 301.24884 56.59466 301.14062 53.480828 301.14062 49.037109 C 301.14062 44.593393 301.24884 41.456721 301.4668 39.626953 C 301.68462 37.797188 302.20739 36.555832 303.03516 35.902344 C 303.8629 35.205291 305.27917 34.855469 307.2832 34.855469 z M 357.07812 34.855469 C 358.6465 34.855469 359.80236 35.094995 360.54297 35.574219 C 361.2836 36.053443 361.80637 37.078114 362.11133 38.646484 C 362.41629 40.214857 362.56836 42.720409 362.56836 46.162109 L 362.56836 47.337891 L 350.87109 47.337891 C 350.87109 43.460529 351.00225 40.694564 351.26367 39.039062 C 351.52506 37.383559 352.06874 36.271433 352.89648 35.705078 C 353.76779 35.138721 355.16122 34.855469 357.07812 34.855469 z M 380.86523 34.855469 C 382.8257 34.855469 384.22106 35.205291 385.04883 35.902344 C 385.87644 36.555832 386.39923 37.797188 386.61719 39.626953 C 386.87858 41.456721 387.00977 44.593393 387.00977 49.037109 C 387.00977 53.437261 386.87858 56.551092 386.61719 58.380859 C 386.39936 60.167059 385.87657 61.408416 385.04883 62.105469 C 384.22106 62.758957 382.8257 63.085938 380.86523 63.085938 C 378.8612 63.085937 377.44688 62.758957 376.61914 62.105469 C 375.79127 61.408416 375.26848 60.167059 375.05078 58.380859 C 374.83283 56.59466 374.72266 53.480828 374.72266 49.037109 C 374.72266 44.593393 374.83283 41.456721 375.05078 39.626953 C 375.26861 37.797188 375.7914 36.555832 376.61914 35.902344 C 377.44688 35.205291 378.8612 34.855469 380.86523 34.855469 z M 155.54492 34.921875 C 157.41826 34.921875 158.74707 35.248856 159.53125 35.902344 C 160.31543 36.512266 160.83822 37.753623 161.09961 39.626953 C 161.40459 41.500286 161.55664 44.614117 161.55664 48.970703 C 161.55664 53.327289 161.40459 56.443076 161.09961 58.316406 C 160.83822 60.189739 160.31543 61.451981 159.53125 62.105469 C 158.74707 62.715391 157.41826 63.021484 155.54492 63.021484 C 153.97654 63.021484 152.75607 62.62989 151.88477 61.845703 C 151.057 61.061519 150.44678 59.688979 150.05469 57.728516 C 149.74973 56.334407 149.59766 53.41442 149.59766 48.970703 C 149.59766 44.614117 149.77062 41.500286 150.11914 39.626953 C 150.4241 37.927887 151.01343 36.728303 151.88477 36.03125 C 152.75607 35.290629 153.97654 34.921875 155.54492 34.921875 z M 332.57422 34.921875 C 334.44755 34.921875 335.77637 35.248856 336.56055 35.902344 C 337.34472 36.512266 337.86749 37.753623 338.12891 39.626953 C 338.43386 41.500286 338.58594 44.614117 338.58594 48.970703 C 338.58594 53.327289 338.43386 56.443076 338.12891 58.316406 C 337.86749 60.189739 337.34472 61.451981 336.56055 62.105469 C 335.77637 62.715391 334.44755 63.021484 332.57422 63.021484 C 331.04941 63.021484 329.84982 62.673616 328.97852 61.976562 C 328.10718 61.235941 327.5198 60.059201 327.21484 58.447266 C 326.9535 57.227421 326.77859 55.898609 326.69141 54.460938 C 326.64782 53.023263 326.62695 51.192561 326.62695 48.970703 C 326.62695 44.744816 326.84364 41.543527 327.2793 39.365234 C 327.58425 37.796864 328.15075 36.663853 328.97852 35.966797 C 329.84982 35.269744 331.04941 34.921875 332.57422 34.921875 z M 261.86523 49.625 L 268.66211 49.625 L 268.66211 52.173828 C 268.66211 55.136305 268.40169 57.59813 267.87891 59.558594 C 267.48682 60.996268 266.81003 61.931529 265.85156 62.367188 C 264.93669 62.802846 263.71817 63.021484 262.19336 63.021484 C 260.75568 63.021484 259.68728 62.846575 258.99023 62.498047 C 258.29319 62.105954 257.79324 61.451992 257.48828 60.537109 C 257.22686 59.578662 257.0957 58.185234 257.0957 56.355469 C 257.0957 54.395005 257.22686 52.957854 257.48828 52.042969 C 257.74967 51.084521 258.20589 50.453398 258.85938 50.148438 C 259.51286 49.79991 260.51468 49.625 261.86523 49.625 z "
       transform="matrix(0.26458333,0,0,0.26458333,113.02788,61.337673)" />
    <path
       style="fill:#f7ed16;fill-opacity:1;stroke-width:0.264583"
       d="m 118.7986,85.62877 c -0.0429,-0.357154 -0.0785,-1.665158 -0.0791,-2.906684 -5.3e-4,-1.241525 -0.0452,-2.257316 -0.099,-2.257316 -0.0539,0 -0.34375,0.250467 -0.6442,0.556598 -0.30044,0.306129 -0.61533,0.556599 -0.69974,0.556599 -0.21405,0 -0.78452,-0.776385 -0.78452,-1.067697 0,-0.13385 0.63579,-0.937183 1.43467,-1.812734 0.78907,-0.864799 1.50371,-1.572361 1.58809,-1.572361 0.19007,0 3.16167,3.138477 3.16167,3.339211 0,0.192238 -0.75354,1.237271 -0.89216,1.237271 -0.0594,0 -0.40977,-0.320045 -0.77849,-0.711211 l -0.67041,-0.71121 -0.005,2.999449 -0.005,2.999449 h -0.7249 -0.72491 z m -0.45121,-9.504418 c -0.44219,-0.126344 -1.01627,-0.262165 -1.27573,-0.301827 l -0.47176,-0.07211 0.0388,-0.328425 0.0388,-0.328425 -1.0252,-0.632261 c -0.56386,-0.347745 -1.11313,-0.720188 -1.2206,-0.827657 -0.10747,-0.107465 -0.1577,-0.256394 -0.11162,-0.330954 0.0461,-0.07455 0.18716,-0.135559 0.31352,-0.135559 0.12636,0 0.76639,0.303916 1.42228,0.675365 l 1.19255,0.67537 -1.87204,-1.938218 c -1.02962,-1.066017 -1.92223,-2.032006 -1.98358,-2.146642 -0.0767,-0.143346 -0.0541,-0.256095 0.0724,-0.361106 l 0.18397,-0.15268 1.26678,1.21957 c 0.69672,0.670764 1.62159,1.554607 2.05527,1.9641 l 0.78851,0.74453 -0.31277,-0.556599 c -0.17202,-0.306128 -0.8797,-1.556229 -1.57261,-2.778003 -0.69292,-1.221772 -1.39866,-2.49533 -1.56831,-2.830124 l -0.30847,-0.608719 0.17054,-0.170534 0.17053,-0.170535 0.19882,0.155819 c 0.10935,0.0857 1.02401,1.592641 2.03258,3.348754 1.00858,1.756114 1.85304,3.135122 1.8766,3.06446 0.0236,-0.07066 -0.43731,-1.946566 -1.02414,-4.168677 -0.58683,-2.222114 -1.05018,-4.153358 -1.02968,-4.291658 0.0633,-0.427363 0.30667,-0.365752 0.49767,0.126013 0.10018,0.257937 0.64984,2.18426 1.22145,4.280715 l 1.03931,3.811735 0.0771,-2.698538 c 0.0424,-1.484196 0.0842,-3.491693 0.0928,-4.461102 l 0.0157,-1.762562 h 0.23192 c 0.16079,0 0.25562,0.118536 0.30922,0.386527 0.0425,0.21259 0.0773,2.225622 0.0773,4.473406 0,2.247781 0.0283,4.058579 0.0629,4.023995 0.0346,-0.03458 0.53503,-1.783231 1.1121,-3.885883 0.57707,-2.102654 1.13433,-4.008162 1.23836,-4.23446 0.10404,-0.226303 0.25759,-0.387765 0.34125,-0.358807 0.092,0.03184 0.1359,0.218938 0.11111,0.4733 -0.0225,0.23136 -0.48377,2.14611 -1.02495,4.255 -0.54118,2.108888 -1.0127,3.91614 -1.04783,4.016108 -0.0351,0.09997 -0.0276,0.14546 0.0168,0.101087 0.0444,-0.04437 0.92881,-1.54549 1.96542,-3.335819 l 1.88475,-3.255151 h 0.23658 0.23659 l -0.0346,0.307571 c -0.019,0.169164 -0.84221,1.75547 -1.82923,3.525125 l -1.79458,3.217556 1.14894,-1.117526 c 2.01728,-1.96211 2.91477,-2.778665 3.0541,-2.778665 0.0746,0 0.13571,0.145772 0.13571,0.323935 v 0.323937 l -1.88625,1.917309 -1.88625,1.917308 1.33865,-0.710875 1.33865,-0.710879 0.14283,0.142832 c 0.0997,0.09974 0.10467,0.203333 0.0163,0.34335 -0.0696,0.110286 -0.62491,0.513569 -1.2341,0.896186 l -1.10763,0.695666 0.0403,0.399143 0.0402,0.39914 -0.72053,0.0026 c -0.44851,0.0019 -0.92409,0.09508 -1.25972,0.247374 -0.29655,0.134565 -0.74183,0.238141 -0.98951,0.230175 -0.24767,-0.008 -0.81211,-0.117867 -1.2543,-0.244211 z m -4.92376,-13.082358 c -0.10913,-0.06921 -0.14936,-0.320037 -0.12368,-0.771159 l 0.038,-0.668579 h 6.24628 6.24627 l 0.038,0.668579 c 0.0257,0.451122 -0.0145,0.701944 -0.12368,0.771159 -0.21131,0.134015 -12.10998,0.134015 -12.32129,0 z"
       id="path12935" />
  </g>
</svg>
